# xmcd CD database file
#
# Track frame offsets:
#	150
#	30243
#	50538
#	73407
#	95871
#	111089
#	131845
#	154239
#	170280
#	194430
#	214766
#	231970
#	252019
#	285392
#	305346
#
# Disc length: 4474 seconds
#
# Revision: 5
# Processed by: cddbd v1.5PL3 Copyright (c) Steve Scherf et al.
# Submitted via: CDex 1.51
#
DISCID=d811780f
DTITLE=Popa Chubby - New York City Blues (again)
DYEAR=2001
DGENRE=Blues
TTITLE0=Popa Chubby - My last cigarette
TTITLE1=Irving Louis Lattin - Never make a move too soon
TTITLE2=Matt Smith - Shelter from the storm
TTITLE3=Matt Smith - Junkie for your love
TTITLE4=Popa Chubby - Fishnet stocking and a long pair of legs
TTITLE5=Zach Zunis - Lookey here!
TTITLE6=Joe Taino - Yo tengo blues
TTITLE7=Steve Logan - Dancin' chickens
TTITLE8=Popa Chubby - Take off
TTITLE9=Irving Louis Lattin - When you got a good friend
TTITLE10=Joe Taino - Anna Lee
TTITLE11=Joe Taino - Mary Lou
TTITLE12=Lewis Gatewood - Red House
TTITLE13=Zach Zunis - Surf
TTITLE14=Popa Chubby - Dirty Lie (Live Version)
EXTD=YEAR: 2001
EXTT0=
EXTT1=
EXTT2=
EXTT3=
EXTT4=
EXTT5=
EXTT6=
EXTT7=
EXTT8=
EXTT9=
EXTT10=
EXTT11=
EXTT12=
EXTT13=
EXTT14=
PLAYORDER=
